<svg width="19" height="18" viewBox="0 0 19 18" fill="none" xmlns="http://www.w3.org/2000/svg">
<path fill-rule="evenodd" clip-rule="evenodd" d="M1.00098 8.99984C1.00098 4.58192 4.58263 1 9.00071 1C13.4188 1 17.0009 4.58171 17.0009 8.99984C17.0009 13.418 13.4188 17 9.00071 17C4.58263 17 1.00098 13.4178 1.00098 8.99984ZM5.23466 6.78662H12.7659C12.8708 6.78662 12.9629 6.71698 12.9914 6.61609C13.0199 6.5152 12.9781 6.40759 12.8888 6.35266L9.12315 4.03479C9.04783 3.9884 8.9528 3.9884 8.87742 4.03479L5.1118 6.35266C5.0225 6.40765 4.98063 6.5152 5.0092 6.61609C5.03776 6.71698 5.12986 6.78662 5.23466 6.78662ZM8.84098 5.37854H9.15965C9.2891 5.37854 9.39402 5.48346 9.39402 5.61292C9.39402 5.74237 9.2891 5.84729 9.15965 5.84729H8.84098C8.71153 5.84729 8.60661 5.74237 8.60661 5.61292C8.60661 5.48346 8.71153 5.37854 8.84098 5.37854ZM12.4441 7.49023V7.25586H5.55588V7.49023C5.55588 7.61969 5.6608 7.72461 5.79025 7.72461H12.2097C12.3391 7.72461 12.4441 7.61969 12.4441 7.49023ZM6.80582 8.19336H5.86838V10.438H6.80582V8.19336ZM7.64359 8.19336H8.58109V10.438H7.64359V8.19336ZM10.3564 8.19336H9.41885V10.438H10.3564V8.19336ZM12.1316 8.19336H11.1941V10.438H12.1316V8.19336ZM5.23459 10.9062H12.7655C12.8949 10.9062 12.9998 11.0112 12.9998 11.1406V11.7656C12.9998 11.8951 12.8949 12 12.7655 12H5.23459C5.10513 12 5.00021 11.8951 5.00021 11.7656V11.1406C5.00021 11.0112 5.10513 10.9062 5.23459 10.9062Z" fill="#D2DCE8"/>
</svg>
