<svg width="17" height="17" viewBox="0 0 17 17" fill="none" xmlns="http://www.w3.org/2000/svg">
<path d="M6.59204 8.50003L13.2866 1.80563C13.4 1.69209 13.4568 1.56143 13.4568 1.41383C13.4568 1.26622 13.4001 1.13556 13.2866 1.02226L12.4348 0.170456C12.3212 0.0569779 12.1906 0 12.0433 0C11.8956 0 11.765 0.0569779 11.6515 0.170456L3.71343 8.10816C3.59989 8.2217 3.54327 8.35236 3.54327 8.49997C3.54327 8.64764 3.59989 8.77824 3.71343 8.89178L11.6511 16.8295C11.7648 16.9432 11.8955 16.9999 12.0431 16.9999C12.1906 16.9999 12.3212 16.9432 12.4347 16.8295L13.2865 15.9783C13.4 15.8647 13.4566 15.734 13.4566 15.5863C13.4566 15.4388 13.4 15.3082 13.2865 15.1947L6.59204 8.50003Z" fill="black"/>
</svg>
