<svg width="12" height="13" viewBox="0 0 12 13" fill="none" xmlns="http://www.w3.org/2000/svg">
<path fill-rule="evenodd" clip-rule="evenodd" d="M5.52949 0.845184L0.25155 4.39153H10.8075L5.52949 0.845184ZM5.52943 2.23832C5.87643 2.23832 6.15776 2.52186 6.15776 2.87159C6.15776 3.22133 5.87643 3.50487 5.52943 3.50487C5.18243 3.50487 4.9011 3.22133 4.9011 2.87159C4.9011 2.52186 5.18243 2.23832 5.52943 2.23832ZM1.25674 4.77148V9.71103H2.26206V4.77148H1.25674ZM3.77019 4.77148V9.71103H4.77551V4.77148H3.77019ZM6.28343 4.77148V9.71103H7.28875V4.77148H6.28343ZM8.79672 4.77148V9.71103H9.80204V4.77148H8.79672ZM0.50277 10.0911V11.1043H10.556V10.0911H0.50277ZM0.00012207 11.4842V12.4975H11.0587V11.4842H0.00012207Z" fill="#939EAA"/>
</svg>
