<svg width="19" height="9" viewBox="0 0 19 9" fill="none" xmlns="http://www.w3.org/2000/svg">
<path d="M0 0.386719V7.16011C0 7.77397 0.499529 8.27339 1.1135 8.27339H17.8865C18.5005 8.27339 19 7.77397 19 7.16011V0.386719H0ZM5.44325 5.89653H2.84558C2.5381 5.89653 2.28883 5.64731 2.28883 5.33989C2.28883 5.03248 2.5381 4.78325 2.84558 4.78325H5.44325C5.75074 4.78325 6 5.03248 6 5.33989C6 5.64731 5.75074 5.89653 5.44325 5.89653ZM13.3965 5.65373C11.9262 6.50654 10.0586 5.44476 10.0586 3.72842C10.0586 2.01508 11.9232 0.948592 13.3965 1.80315C14.8712 0.949297 16.7359 2.01452 16.7359 3.72842C16.7359 5.43968 14.8739 6.50917 13.3965 5.65373Z" fill="#D2DCE8"/>
</svg>
