<svg width="10" height="10" viewBox="0 0 10 10" fill="none" xmlns="http://www.w3.org/2000/svg">
<g clip-path="url(#clip0)">
<path d="M5.88439 5.0009L9.81676 1.06853C10.0611 0.824421 10.0611 0.428349 9.81676 0.184243C9.57245 -0.0600715 9.17679 -0.0600715 8.93248 0.184243L5.0001 4.11662L1.06752 0.184243C0.823206 -0.0600715 0.42755 -0.0600715 0.183236 0.184243C-0.0610786 0.428349 -0.0610786 0.824421 0.183236 1.06853L4.11582 5.0009L0.183236 8.93328C-0.0610786 9.17738 -0.0610786 9.57346 0.183236 9.81756C0.305393 9.93951 0.46549 10.0006 0.625378 10.0006C0.785266 10.0006 0.945363 9.93951 1.06752 9.81736L5.0001 5.88498L8.93248 9.81736C9.05464 9.93951 9.21473 10.0006 9.37462 10.0006C9.53451 10.0006 9.69461 9.93951 9.81676 9.81736C10.0611 9.57325 10.0611 9.17718 9.81676 8.93307L5.88439 5.0009Z" fill="black" fill-opacity="0.4"/>
</g>
<defs>
<clipPath id="clip0">
<rect width="10" height="10" fill="white"/>
</clipPath>
</defs>
</svg>
