<svg width="19" height="18" viewBox="0 0 19 18" fill="none" xmlns="http://www.w3.org/2000/svg">
<path d="M19 4.67579V3.8399C19 3.22604 18.5005 2.72662 17.8865 2.72662H1.1135C0.499529 2.72662 0 3.22604 0 3.8399V4.67579H19Z" fill="#D2DCE8"/>
<path d="M0 5.5H19V8.48438H0V5.5Z" fill="#D2DCE8"/>
<path d="M0 8.38672V15.1601C0 15.774 0.499529 16.2734 1.1135 16.2734H17.8865C18.5005 16.2734 19 15.774 19 15.1601V8.38672H0ZM13 11.1133H10.4023C10.0948 11.1133 9.84558 10.8641 9.84558 10.5566C9.84558 10.2492 10.0948 10 10.4023 10H13C13.3075 10 13.5568 10.2492 13.5568 10.5566C13.5568 10.8641 13.3075 11.1133 13 11.1133Z" fill="#D2DCE8"/>
</svg>
