<svg width="22" height="14" viewBox="0 0 22 14" fill="none" xmlns="http://www.w3.org/2000/svg">
<path fill-rule="evenodd" clip-rule="evenodd" d="M20.8296 13.1187H1.19325C0.653255 13.1187 0.211426 12.6788 0.211426 12.1412V1.38889C0.211426 0.851272 0.653255 0.411392 1.19325 0.411392H20.8296C21.3696 0.411392 21.8114 0.851272 21.8114 1.38889V12.1412C21.8114 12.6788 21.3696 13.1187 20.8296 13.1187Z" fill="#959EA9"/>
<path fill-rule="evenodd" clip-rule="evenodd" d="M18.8659 12.1412H3.15685C3.15685 11.066 2.27324 10.1863 1.19324 10.1863V3.34388C2.27324 3.34388 3.15685 2.46417 3.15685 1.38893H18.8659C18.8659 2.46417 19.7495 3.34388 20.8295 3.34388V10.1863C19.7495 10.1863 18.8659 11.066 18.8659 12.1412Z" fill="#959EA9"/>
<path fill-rule="evenodd" clip-rule="evenodd" d="M11.0114 11.1637C13.1803 11.1637 14.9386 9.19438 14.9386 6.76506C14.9386 4.33574 13.1803 2.36639 11.0114 2.36639C8.8424 2.36639 7.08411 4.33574 7.08411 6.76506C7.08411 9.19438 8.8424 11.1637 11.0114 11.1637Z" fill="#FBEED8"/>
<path fill-rule="evenodd" clip-rule="evenodd" d="M5.1205 7.74256C5.66275 7.74256 6.10233 7.30492 6.10233 6.76506C6.10233 6.22521 5.66275 5.78757 5.1205 5.78757C4.57825 5.78757 4.13867 6.22521 4.13867 6.76506C4.13867 7.30492 4.57825 7.74256 5.1205 7.74256Z" fill="#FBEED8"/>
<path fill-rule="evenodd" clip-rule="evenodd" d="M16.9022 7.74256C17.4445 7.74256 17.8841 7.30492 17.8841 6.76506C17.8841 6.22521 17.4445 5.78757 16.9022 5.78757C16.36 5.78757 15.9204 6.22521 15.9204 6.76506C15.9204 7.30492 16.36 7.74256 16.9022 7.74256Z" fill="#FBEED8"/>
<path fill-rule="evenodd" clip-rule="evenodd" d="M11.5023 6.27633H10.5205C10.2259 6.27633 10.0296 6.08082 10.0296 5.78761C10.0296 5.49435 10.226 5.29888 10.5205 5.29888H11.9932C12.2877 5.29888 12.4841 5.10336 12.4841 4.81015C12.4841 4.5169 12.2877 4.32142 11.9932 4.32142H11.5023C11.5023 4.02817 11.3059 3.8327 11.0114 3.8327C10.7169 3.8327 10.5205 4.02821 10.5205 4.32142C9.68596 4.32142 9.04779 4.95678 9.04779 5.78765C9.04779 6.61852 9.68596 7.25387 10.5205 7.25387H11.5023C11.7969 7.25387 11.9932 7.44939 11.9932 7.7426C11.9932 8.03585 11.7968 8.23133 11.5023 8.23133H10.0296C9.73507 8.23133 9.53873 8.42684 9.53873 8.72006C9.53873 9.01331 9.73511 9.20878 10.0296 9.20878H10.5205C10.5205 9.50204 10.7169 9.69751 11.0114 9.69751C11.306 9.69751 11.5023 9.50199 11.5023 9.20878C12.3368 9.20878 12.975 8.57343 12.975 7.74256C12.975 6.91169 12.3368 6.27633 11.5023 6.27633Z" fill="#333333"/>
</svg>
