<svg width="76" height="75" viewBox="0 0 76 75" fill="none" xmlns="http://www.w3.org/2000/svg">
<path fill-rule="evenodd" clip-rule="evenodd" d="M37.9775 75C58.6882 75 75.4775 58.2107 75.4775 37.5C75.4775 16.7893 58.6882 0 37.9775 0C17.2669 0 0.477539 16.7893 0.477539 37.5C0.477539 58.2107 17.2669 75 37.9775 75Z" fill="#F5DBDB"/>
<g clip-path="url(#clip0)">
<path d="M39.757 37.9863L47.6332 30.1101C48.1225 29.6212 48.1225 28.8279 47.6332 28.339C47.1438 27.8497 46.3514 27.8497 45.862 28.339L37.9859 36.2152L30.1093 28.339C29.62 27.8497 28.8275 27.8497 28.3382 28.339C27.8489 28.8279 27.8489 29.6212 28.3382 30.1101L36.2148 37.9863L28.3382 45.8624C27.8489 46.3514 27.8489 47.1447 28.3382 47.6336C28.5829 47.8778 28.9035 48.0002 29.2238 48.0002C29.544 48.0002 29.8647 47.8778 30.1093 47.6332L37.9859 39.757L45.862 47.6332C46.1067 47.8778 46.4274 48.0002 46.7476 48.0002C47.0678 48.0002 47.3885 47.8778 47.6332 47.6332C48.1225 47.1442 48.1225 46.351 47.6332 45.862L39.757 37.9863Z" fill="#CE0000"/>
</g>
<defs>
<clipPath id="clip0">
<rect x="27.9712" y="27.971" width="20.029" height="20.029" fill="white"/>
</clipPath>
</defs>
</svg>
