<svg width="15" height="15" viewBox="0 0 15 15" fill="none" xmlns="http://www.w3.org/2000/svg">
<path d="M14.9984 7.42206C14.9963 7.20272 14.9852 6.98493 14.9645 6.77053C14.8951 6.05576 14.7242 5.37061 14.4681 4.72834C14.449 4.68052 14.4314 4.63209 14.4111 4.58489C14.0699 3.77881 13.5908 3.04491 13.0043 2.41159C12.9658 2.37025 12.9266 2.32953 12.8874 2.28942C12.7767 2.17436 12.6628 2.06207 12.545 1.95441C11.2117 0.740502 9.44099 -0.000488281 7.49998 -0.000488281C5.54262 -0.000488281 3.75924 0.753767 2.42225 1.98618C2.11068 2.27338 1.8244 2.58681 1.56466 2.92244C0.584895 4.18972 0 5.7772 0 7.49949C0 11.6354 3.36469 14.9998 7.50029 14.9998C10.4093 14.9998 12.9349 13.3339 14.1781 10.9067C14.4441 10.3879 14.6511 9.83475 14.7905 9.2551C14.826 9.10795 14.8565 8.96019 14.883 8.81057C14.9586 8.38455 15 7.94649 15 7.49949C15.0003 7.47358 14.9987 7.44797 14.9984 7.42206ZM13.5868 4.42447L13.6303 4.37573C13.6873 4.48648 13.7407 4.59908 13.7916 4.71322L13.7207 4.71044L13.5868 4.72895V4.42447V4.42447ZM12.5031 3.11587L12.5043 2.78085C12.6221 2.90578 12.7357 3.03442 12.8442 3.16769L12.7091 3.36883L12.2368 3.36451L12.2072 3.2661L12.5031 3.11587ZM3.45569 2.28325V2.27061H3.60593L3.61888 2.21909H3.86475V2.32644L3.7941 2.42084H3.45538L3.45569 2.28325ZM3.6957 2.61796C3.6957 2.61796 3.84593 2.59236 3.85889 2.59236C3.87184 2.59236 3.85889 2.74229 3.85889 2.74229L3.52017 2.76357L3.45569 2.68645L3.6957 2.61796ZM14.0646 5.59519H13.5158L13.1814 5.34624L12.8294 5.38048V5.59519H12.7181L12.5978 5.50943L11.9882 5.35488V4.96001L11.2157 5.02017L10.9763 5.14881H10.6697L10.5195 5.13369L10.1471 5.34038V5.72938L9.38608 6.27849L9.44932 6.51294H9.60357L9.56315 6.73629L9.45457 6.77608L9.4487 7.35975L10.1064 8.10876H10.3927L10.41 8.0631H10.9245L11.0729 7.92582H11.3647L11.5248 8.08624L11.9598 8.13128L11.9021 8.70969L12.3849 9.56205L12.1307 10.0479L12.148 10.2768L12.3482 10.4764V11.0268L12.611 11.3803V11.8375H12.8381C11.5745 13.3889 9.65138 14.3825 7.49967 14.3825C3.70464 14.3828 0.616978 11.2948 0.616978 7.49949C0.616978 6.5441 0.813176 5.63344 1.1664 4.80577V4.59106L1.41257 4.29213C1.49802 4.13079 1.58964 3.97346 1.68743 3.82015L1.69854 3.94508L1.41288 4.29213C1.32434 4.45933 1.24167 4.63024 1.1667 4.80577V5.19755L1.45267 5.33513V5.87962L1.72692 6.34759L1.94996 6.38184L1.97865 6.22142L1.71551 5.81545L1.66399 5.42089H1.81823L1.88332 5.82686L2.26369 6.38184L2.16559 6.56107L2.40745 6.93095L3.00807 7.07964V6.98246L3.24839 7.01671L3.22556 7.18823L3.41435 7.22278L3.70588 7.30237L4.11771 7.77158L4.64368 7.81137L4.6952 8.24048L4.33519 8.49221L4.31823 8.87535L4.26671 9.1098L4.78744 9.76164L4.82723 9.98499C4.82723 9.98499 5.01603 10.0362 5.03916 10.0362C5.06199 10.0362 5.46241 10.3394 5.46241 10.3394V11.5176L5.60524 11.5577L5.50807 12.1012L5.74838 12.4217L5.70396 12.9604L6.02139 13.5184L6.42891 13.8744L6.83858 13.8818L6.87868 13.7501L6.5776 13.4965L6.59487 13.3707L6.64886 13.2164L6.66027 13.0591L6.45667 13.0529L6.35394 12.924L6.523 12.7614L6.54582 12.6386L6.35703 12.5846L6.36813 12.4705L6.63714 12.4298L7.04619 12.2333L7.18347 11.9815L7.61258 11.4324L7.5151 11.003L7.64682 10.7744L8.04138 10.7864L8.30699 10.576L8.39275 9.74745L8.68735 9.37325L8.73887 9.13294L8.47018 9.04687L8.2928 8.75597L7.68662 8.7498L7.20599 8.56655L7.18316 8.22382L7.02275 7.94341L6.58809 7.93693L6.33698 7.54268L6.11394 7.43378L6.10253 7.55409L5.69655 7.57816L5.54786 7.37116L5.12431 7.28509L4.77541 7.68829L4.2263 7.59512L4.1865 6.97629L3.78577 6.90781L3.9465 6.60426L3.90053 6.42996L3.37394 6.78195L3.04263 6.74153L2.92447 6.48271L2.99666 6.21587L3.17929 5.87931L3.59976 5.66645L4.4117 5.66614L4.40954 5.91386L4.70137 6.04959L4.67823 5.62635L4.88862 5.41472L5.3131 5.13585L5.3421 4.93965L5.76535 4.49913L6.21543 4.24987L6.17564 4.21717L6.48042 3.93028L6.5921 3.95989L6.64331 4.02406L6.75899 3.89573L6.78737 3.88308L6.66058 3.86518L6.53194 3.8223V3.69891L6.60012 3.64307H6.75035L6.81915 3.6733L6.87868 3.79362L6.95149 3.78251V3.77202L6.97246 3.77912L7.18347 3.74673L7.21339 3.64369L7.3337 3.67392V3.78559L7.22203 3.86241H7.22234L7.23869 3.98488L7.62091 4.10272C7.62091 4.10272 7.62122 4.10426 7.62183 4.10735L7.70975 4.09994L7.71561 3.93429L7.41268 3.79639L7.3954 3.7168L7.64682 3.63104L7.65793 3.39042L7.39509 3.23031L7.37782 2.82465L7.0175 3.00172H6.88609L6.92064 2.69293L6.43014 2.57724L6.22716 2.73056V3.19823L5.86221 3.31392L5.71599 3.6187L5.55743 3.64431V3.25438L5.21439 3.20687L5.04287 3.0952L4.97376 2.84254L5.58735 2.48346L5.88751 2.39215L5.91774 2.5939L6.08494 2.58526L6.0979 2.48377L6.27281 2.45878L6.2759 2.42331L6.20063 2.39215L6.18335 2.2848L6.39837 2.2666L6.52824 2.13148L6.53534 2.12161L6.53688 2.12222L6.57636 2.0815L7.0283 2.02443L7.2282 2.1941L6.70408 2.47328L7.37103 2.63061L7.45741 2.40758H7.74893L7.85197 2.21323L7.6459 2.16171V1.91584L6.99961 1.62957L6.55354 1.68108L6.30181 1.81281L6.31908 2.13302L6.05594 2.09292L6.01553 1.91584L6.26757 1.68695L5.81008 1.66412L5.67866 1.70391L5.62159 1.85816L5.79311 1.88715L5.75887 2.05867L5.46735 2.07595L5.42169 2.19009L4.99875 2.20181C4.99875 2.20181 4.98703 1.96181 4.97006 1.96181C4.9531 1.96181 5.30169 1.95595 5.30169 1.95595L5.55372 1.70977L5.41614 1.64098L5.2332 1.81867L4.92965 1.80139L4.74672 1.54967H4.35771L3.95174 1.85291H4.32378L4.35771 1.96181L4.26116 2.05158L4.67299 2.06299L4.73592 2.21168L4.27226 2.19441L4.24974 2.07996L3.95822 2.01703L3.80367 1.93127L3.45662 1.93404C4.59278 1.10637 5.98993 0.616489 7.49998 0.616489C9.24047 0.616489 10.8307 1.26709 12.044 2.33601L11.9623 2.48223L11.6448 2.60655L11.511 2.75185L11.5418 2.92121L11.7056 2.94404L11.8043 3.19083L12.0869 3.077L12.1335 3.40708H12.0483L11.8164 3.37284L11.5591 3.41602L11.3101 3.7677L10.9541 3.82354L10.9026 4.12833L11.0528 4.1638L11.0093 4.35969L10.6558 4.28874L10.3316 4.35969L10.2628 4.54016L10.319 4.91898L10.5093 5.00814L10.8286 5.00628L11.0442 4.98685L11.1099 4.81533L11.4468 4.37758L11.6686 4.42293L11.887 4.2255L11.9277 4.37974L12.4651 4.74222L12.3994 4.83045L12.1572 4.81749L12.2504 4.94952L12.3994 4.98222L12.574 4.90942L12.5703 4.69903L12.6477 4.66016L12.5854 4.59414L12.227 4.39424L12.1326 4.12863H12.4306L12.5259 4.22303L12.7825 4.44422L12.7933 4.71168L13.0593 4.99487L13.1583 4.60679L13.3424 4.50622L13.377 4.82366L13.5568 5.02109L13.9156 5.01492C13.985 5.19354 14.0473 5.37524 14.1019 5.56064L14.0646 5.59519ZM4.09087 3.40708L4.27103 3.32132L4.43391 3.36019L4.37776 3.57891L4.20193 3.63474L4.09087 3.40708ZM5.04688 3.92195V4.06354H4.63535L4.48111 4.02066L4.51967 3.92195L4.71741 3.8402H4.98765V3.92195H5.04688ZM5.23629 4.11938V4.25666L5.13325 4.32298L5.00492 4.34674C5.00492 4.34674 5.00492 4.14097 5.00492 4.11938H5.23629ZM5.1203 4.06354V3.90035L5.26189 4.0293L5.1203 4.06354ZM5.18477 4.39363V4.5272L5.08636 4.62592H4.86765L4.90189 4.47599L5.00523 4.46705L5.02652 4.41553L5.18477 4.39363ZM4.63998 4.11938H4.86734L4.57581 4.52689L4.4555 4.46242L4.48142 4.2909L4.63998 4.11938ZM5.571 4.34674V4.48H5.35228L5.29243 4.39363V4.26961H5.30971L5.571 4.34674ZM5.36894 4.16349L5.43125 4.09809L5.53645 4.16349L5.45223 4.2329L5.36894 4.16349ZM14.1763 5.94255L14.1979 5.91725C14.2068 5.95612 14.2164 5.99499 14.225 6.03448L14.1763 5.94255Z" fill="#858585"/>
</svg>
