<svg width="22" height="20" viewBox="0 0 22 20" fill="none" xmlns="http://www.w3.org/2000/svg">
<path d="M14.844 6.76103C13.3947 6.73886 11.9819 7.21605 10.843 8.11245C10.7582 8.17804 10.6542 8.21363 10.547 8.21363C10.4399 8.21363 10.3358 8.17804 10.2511 8.11245C9.1121 7.21605 7.69934 6.73886 6.25009 6.76103C2.76203 6.81232 0 9.74403 0 13.2321V19.4072H4.27326V13.165C4.26742 12.6427 4.45538 12.1369 4.80083 11.7452C5.14627 11.3534 5.62467 11.1037 6.14355 11.0442C6.43086 11.0164 6.7208 11.049 6.99479 11.1398C7.26877 11.2307 7.52074 11.3778 7.73454 11.5717C7.94835 11.7656 8.11926 12.0021 8.23633 12.2659C8.35339 12.5298 8.41402 12.8152 8.41434 13.1038V19.4072H12.6876V13.165C12.6812 12.6432 12.8685 12.1376 13.2132 11.7459C13.5579 11.3542 14.0356 11.1042 14.5539 11.0442C14.8412 11.0164 15.131 11.049 15.4049 11.1398C15.6788 11.2307 15.9306 11.3778 16.1443 11.5718C16.3579 11.7657 16.5287 12.0022 16.6455 12.2661C16.7623 12.5299 16.8227 12.8153 16.8228 13.1038V19.4072H21.096V13.2321C21.094 9.74403 18.332 6.81232 14.844 6.76103Z" fill="#959EA9"/>
<path d="M4.66193 0.027591L8.21311 2.07741C8.24347 2.09462 8.26873 2.11957 8.2863 2.14973C8.30387 2.17988 8.31313 2.21416 8.31313 2.24905C8.31313 2.28395 8.30387 2.31823 8.2863 2.34838C8.26873 2.37854 8.24347 2.40349 8.21311 2.4207L4.66193 4.47052C4.63183 4.48837 4.59753 4.49789 4.56254 4.49811C4.52755 4.49832 4.49313 4.48923 4.46281 4.47177C4.43249 4.4543 4.40736 4.42908 4.39 4.3987C4.37264 4.36832 4.36368 4.33387 4.36402 4.29888V0.199232C4.36368 0.164243 4.37264 0.129792 4.39 0.099411C4.40736 0.0690299 4.43249 0.0438115 4.46281 0.0263432C4.49313 0.00887482 4.52755 -0.000215452 4.56254 3.87697e-06C4.59753 0.000223206 4.63183 0.00974391 4.66193 0.027591Z" fill="#959EA9"/>
<path d="M13.1413 0.0275924L16.6925 2.07742C16.7229 2.09462 16.7481 2.11958 16.7657 2.14973C16.7833 2.17988 16.7925 2.21416 16.7925 2.24906C16.7925 2.28396 16.7833 2.31823 16.7657 2.34838C16.7481 2.37854 16.7229 2.40349 16.6925 2.4207L13.1413 4.47052C13.1113 4.48787 13.0772 4.49699 13.0425 4.49695C13.0078 4.49692 12.9737 4.48773 12.9437 4.47032C12.9137 4.45292 12.8888 4.4279 12.8715 4.3978C12.8543 4.3677 12.8453 4.33358 12.8454 4.29888V0.199234C12.8453 0.164536 12.8543 0.130415 12.8715 0.100314C12.8888 0.0702131 12.9137 0.0451967 12.9437 0.0277881C12.9737 0.0103794 13.0078 0.00119404 13.0425 0.00115976C13.0772 0.00112548 13.1113 0.0102431 13.1413 0.0275924Z" fill="#959EA9"/>
</svg>
