<svg width="19" height="20" viewBox="0 0 19 20" fill="none" xmlns="http://www.w3.org/2000/svg">
<path fill-rule="evenodd" clip-rule="evenodd" d="M0.417391 6.04343L9.18261 0.199951L17.9478 6.04343H0.417391ZM10.2261 3.53908C10.2261 2.96279 9.75891 2.4956 9.18261 2.4956C8.60631 2.4956 8.13913 2.96279 8.13913 3.53908C8.13913 4.11537 8.60631 4.58256 9.18261 4.58256C9.75891 4.58256 10.2261 4.11537 10.2261 3.53908ZM2.08696 6.66952V14.8086H3.75652V6.66952L2.08696 6.66952ZM6.26087 14.8086V6.66952L7.93043 6.66952V14.8086H6.26087ZM10.4348 6.66952V14.8086H12.1043V6.66952L10.4348 6.66952ZM14.6087 14.8086V6.66952L16.2783 6.66952V14.8086H14.6087ZM0.834783 15.4347V17.1043H17.5304V15.4347H0.834783ZM0 19.4V17.7304H18.3652V19.4H0Z" fill="#939EAA"/>
</svg>
