<svg width="21" height="21" viewBox="0 0 21 21" fill="none" xmlns="http://www.w3.org/2000/svg">
<path fill-rule="evenodd" clip-rule="evenodd" d="M1 6.20002V0.600098H6.59992V6.20002H1ZM5.00008 4.60018V2.20018H2.60008V4.60018H5.00008Z" fill="#919EAB"/>
<path fill-rule="evenodd" clip-rule="evenodd" d="M1 6.20002V0.600098H6.59992V6.20002H1ZM5.00008 4.60018V2.20018H2.60008V4.60018H5.00008Z" fill="black" fill-opacity="0.01"/>
<path d="M1 0.600098V9.76324e-05H0.4V0.600098H1ZM1 6.20002H0.4V6.80002H1V6.20002ZM6.59992 0.600098H7.19992V9.76324e-05H6.59992V0.600098ZM6.59992 6.20002V6.80002H7.19992V6.20002H6.59992ZM5.00008 2.20018H5.60008V1.60018H5.00008V2.20018ZM5.00008 4.60018V5.20018H5.60008V4.60018H5.00008ZM2.60008 2.20018V1.60018H2.00008V2.20018H2.60008ZM2.60008 4.60018H2.00008V5.20018H2.60008V4.60018ZM0.4 0.600098V6.20002H1.6V0.600098H0.4ZM6.59992 9.76324e-05H1V1.2001H6.59992V9.76324e-05ZM7.19992 6.20002V0.600098H5.99992V6.20002H7.19992ZM1 6.80002H6.59992V5.60002H1V6.80002ZM4.40008 2.20018V4.60018H5.60008V2.20018H4.40008ZM2.60008 2.80018H5.00008V1.60018H2.60008V2.80018ZM3.20008 4.60018V2.20018H2.00008V4.60018H3.20008ZM5.00008 4.00018H2.60008V5.20018H5.00008V4.00018Z" fill="#919EAB"/>
<path fill-rule="evenodd" clip-rule="evenodd" d="M1 19.8001V14.1999H6.59992V19.8001H1ZM5.00008 18.2003V15.8003H2.60008V18.2003H5.00008Z" fill="#919EAB"/>
<path fill-rule="evenodd" clip-rule="evenodd" d="M1 19.8001V14.1999H6.59992V19.8001H1ZM5.00008 18.2003V15.8003H2.60008V18.2003H5.00008Z" fill="black" fill-opacity="0.01"/>
<path d="M1 14.1999V13.5999H0.4V14.1999H1ZM1 19.8001H0.4V20.4001H1V19.8001ZM6.59992 14.1999H7.19992V13.5999H6.59992V14.1999ZM6.59992 19.8001V20.4001H7.19992V19.8001H6.59992ZM5.00008 15.8003H5.60008V15.2003H5.00008V15.8003ZM5.00008 18.2003V18.8003H5.60008V18.2003H5.00008ZM2.60008 15.8003V15.2003H2.00008V15.8003H2.60008ZM2.60008 18.2003H2.00008V18.8003H2.60008V18.2003ZM0.4 14.1999V19.8001H1.6V14.1999H0.4ZM6.59992 13.5999H1V14.7999H6.59992V13.5999ZM7.19992 19.8001V14.1999H5.99992V19.8001H7.19992ZM1 20.4001H6.59992V19.2001H1V20.4001ZM4.40008 15.8003V18.2003H5.60008V15.8003H4.40008ZM2.60008 16.4003H5.00008V15.2003H2.60008V16.4003ZM3.20008 18.2003V15.8003H2.00008V18.2003H3.20008ZM5.00008 17.6003H2.60008V18.8003H5.00008V17.6003Z" fill="#919EAB"/>
<path fill-rule="evenodd" clip-rule="evenodd" d="M14.6001 6.20002V0.600098H20.2V6.20002H14.6001ZM18.5999 4.60018V2.20018H16.1999V4.60018H18.5999Z" fill="#919EAB"/>
<path fill-rule="evenodd" clip-rule="evenodd" d="M14.6001 6.20002V0.600098H20.2V6.20002H14.6001ZM18.5999 4.60018V2.20018H16.1999V4.60018H18.5999Z" fill="black" fill-opacity="0.01"/>
<path d="M14.6001 0.600098V9.76324e-05H14.0001V0.600098H14.6001ZM14.6001 6.20002H14.0001V6.80002H14.6001V6.20002ZM20.2 0.600098H20.8V9.76324e-05H20.2V0.600098ZM20.2 6.20002V6.80002H20.8V6.20002H20.2ZM18.5999 2.20018H19.1999V1.60018H18.5999V2.20018ZM18.5999 4.60018V5.20018H19.1999V4.60018H18.5999ZM16.1999 2.20018V1.60018H15.5999V2.20018H16.1999ZM16.1999 4.60018H15.5999V5.20018H16.1999V4.60018ZM14.0001 0.600098V6.20002H15.2001V0.600098H14.0001ZM20.2 9.76324e-05H14.6001V1.2001H20.2V9.76324e-05ZM20.8 6.20002V0.600098H19.6V6.20002H20.8ZM14.6001 6.80002H20.2V5.60002H14.6001V6.80002ZM17.9999 2.20018V4.60018H19.1999V2.20018H17.9999ZM16.1999 2.80018H18.5999V1.60018H16.1999V2.80018ZM16.7999 4.60018V2.20018H15.5999V4.60018H16.7999ZM18.5999 4.00018H16.1999V5.20018H18.5999V4.00018Z" fill="#919EAB"/>
<path fill-rule="evenodd" clip-rule="evenodd" d="M8.20001 0.600098V2.20018H11.3999V6.20002H13V0.600098H8.20001Z" fill="#919EAB"/>
<path fill-rule="evenodd" clip-rule="evenodd" d="M8.20001 0.600098V2.20018H11.3999V6.20002H13V0.600098H8.20001Z" fill="black" fill-opacity="0.01" stroke="#919EAB" stroke-width="1.2"/>
<path fill-rule="evenodd" clip-rule="evenodd" d="M9.80009 18.2003V14.1999H8.20001V19.8001H11.3999V18.2003H9.80009Z" fill="#919EAB"/>
<path fill-rule="evenodd" clip-rule="evenodd" d="M9.80009 18.2003V14.1999H8.20001V19.8001H11.3999V18.2003H9.80009Z" fill="black" fill-opacity="0.01" stroke="#919EAB" stroke-width="1.2"/>
<rect x="18.5999" y="7.80009" width="1.60008" height="3.20016" fill="#919EAB"/>
<rect x="18.5999" y="7.80009" width="1.60008" height="3.20016" fill="black" fill-opacity="0.01" stroke="#919EAB" stroke-width="1.2"/>
<path fill-rule="evenodd" clip-rule="evenodd" d="M17.0001 7.80009H11.3999V11.0003H13V9.40017H17.0001V7.80009Z" fill="#919EAB"/>
<path fill-rule="evenodd" clip-rule="evenodd" d="M17.0001 7.80009H11.3999V11.0003H13V9.40017H17.0001V7.80009Z" fill="black" fill-opacity="0.01" stroke="#919EAB" stroke-width="1.2"/>
<rect x="4.19989" y="11.0003" width="5.60016" height="1.59984" fill="#919EAB"/>
<rect x="4.19989" y="11.0003" width="5.60016" height="1.59984" fill="black" fill-opacity="0.01" stroke="#919EAB" stroke-width="1.2"/>
<path fill-rule="evenodd" clip-rule="evenodd" d="M8.2 3.80002V7.8001H1V12.6001H2.60008V9.40018H9.80008V3.80002H8.2Z" fill="#919EAB"/>
<path fill-rule="evenodd" clip-rule="evenodd" d="M8.2 3.80002V7.8001H1V12.6001H2.60008V9.40018H9.80008V3.80002H8.2Z" fill="black" fill-opacity="0.01" stroke="#919EAB" stroke-width="1.2"/>
<path fill-rule="evenodd" clip-rule="evenodd" d="M12.2001 15.8003C12.2001 13.5906 13.9907 11.7999 16.1999 11.7999C18.4094 11.7999 20.2 13.5906 20.2 15.8003C20.2 18.0095 18.4094 19.8001 16.1999 19.8001C13.9907 19.8001 12.2001 18.0095 12.2001 15.8003ZM18.6038 14.8806L17.7554 14.0322L15.9172 15.8706L14.6445 14.5979L13.7961 15.4463L15.9172 17.5679L18.6038 14.8806Z" fill="#919EAB"/>
</svg>
