<svg width="20" height="20" viewBox="0 0 20 20" fill="none" xmlns="http://www.w3.org/2000/svg">
<path d="M14.2825 8.36919C16.9929 6.3362 22.5685 -0.929838 13.8566 0.350189C10.0621 0.87726 5.3582 3.95757 4.23534 7.79765C3.64952 6.7708 3.00311 5.77775 2.29936 4.82347C1.25393 3.50579 -0.818118 4.79264 0.343467 6.14796C3.63463 10.0257 5.91908 14.694 5.91908 19.4C6.19011 17.0658 6.63595 13.9343 5.62924 11.1483C5.99762 11.3949 6.02431 11.4134 6.28073 11.714C8.06183 14.3494 10.7977 16.5388 13.8566 17.5929C16.6444 18.6094 20.3615 18.007 18.8514 13.9411C18.0383 11.7198 16.141 9.76216 14.2825 8.36919Z" fill="#919EAB"/>
</svg>
