<svg width="18" height="17" viewBox="0 0 18 17" fill="none" xmlns="http://www.w3.org/2000/svg">
<g clip-path="url(#clip0)">
<g clip-path="url(#clip1)">
<path d="M9.00008 12.6827C9.34524 12.6827 9.62504 12.4029 9.62504 12.0578C9.62504 11.7126 9.34524 11.4328 9.00008 11.4328C8.65493 11.4328 8.37512 11.7126 8.37512 12.0578C8.37512 12.4029 8.65493 12.6827 9.00008 12.6827Z" fill="#D2DCE8"/>
<path d="M10.7435 3.64011H7.25648C7.06102 3.64011 6.90198 3.79173 6.90198 3.97776V10.5693C6.90198 10.7555 7.06091 10.907 7.25648 10.907H10.7435C10.939 10.907 11.098 10.7554 11.098 10.5693V3.97776C11.0979 3.79157 10.939 3.64011 10.7435 3.64011Z" fill="#D2DCE8"/>
<path d="M9.00071 0C4.58263 0 1.00098 3.58192 1.00098 7.99984C1.00098 12.4178 4.58263 16 9.00071 16C13.4188 16 17.0009 12.418 17.0009 7.99984C17.0009 3.58171 13.4188 0 9.00071 0ZM12.1131 11.9478C12.1131 12.5589 11.6177 13.0544 11.0065 13.0544H6.99511C6.38402 13.0544 5.8885 12.5589 5.8885 11.9478V4.01723C5.8885 3.40613 6.38396 2.91061 6.99511 2.91061H11.0065C11.6176 2.91061 12.1131 3.40608 12.1131 4.01723V11.9478Z" fill="#D2DCE8"/>
</g>
<path d="M14.996 -143C-67.843 -143 -134.999 -75.839 -134.999 6.99699C-134.999 89.833 -67.843 157 14.996 157C97.835 157 164.999 89.837 164.999 6.99699C164.999 -75.843 97.835 -143 14.996 -143ZM73.354 81.021C73.354 92.479 64.064 101.77 52.605 101.77H-22.609C-34.067 101.77 -43.358 92.48 -43.358 81.021V-67.677C-43.358 -79.135 -34.068 -88.426 -22.609 -88.426H52.605C64.063 -88.426 73.354 -79.136 73.354 -67.677V81.021Z" fill="black"/>
</g>
<defs>
<clipPath id="clip0">
<rect x="1" width="16" height="16" fill="white"/>
</clipPath>
<clipPath id="clip1">
<rect x="1" width="16" height="16" fill="white"/>
</clipPath>
</defs>
</svg>
