<svg width="9" height="11" viewBox="0 0 9 11" fill="none" xmlns="http://www.w3.org/2000/svg">
<path fill-rule="evenodd" clip-rule="evenodd" d="M8.09138 4.28637H7.54006V3.44068C7.54006 1.76294 6.09815 0.398922 4.35938 0.398922C2.6206 0.398922 1.17869 1.76294 1.17869 3.44068V4.28637H0.669785C0.387057 4.28637 0.189148 4.62737 0.189148 4.90017V10.0425C0.189148 10.3153 0.387057 10.4244 0.669785 10.4244H8.10552C8.38824 10.4244 8.54374 10.3153 8.54374 10.0425V4.90017C8.52961 4.62737 8.35997 4.28637 8.09138 4.28637ZM3.68105 8.65122L3.90723 7.39633C3.70932 7.25992 3.5821 7.05532 3.5821 6.8098C3.5821 6.38695 3.93551 6.04595 4.37373 6.04595C4.81196 6.04595 5.16537 6.38695 5.16537 6.8098C5.16537 7.06896 5.03814 7.24628 4.84023 7.38269L5.06641 8.65122H3.68105ZM2.02707 3.44071V4.2864H6.69208V3.44071C6.69208 2.19945 5.63185 1.20372 4.35957 1.20372C3.0873 1.20372 2.02707 2.21309 2.02707 3.44071Z" fill="#F5A623"/>
</svg>
