<svg width="59" height="59" viewBox="0 0 59 59" fill="none" xmlns="http://www.w3.org/2000/svg">
<path fill-rule="evenodd" clip-rule="evenodd" d="M58.9726 25.5671C58.7882 24.4212 58.5643 23.2885 58.2745 22.1689C57.9057 20.7465 57.4316 19.3372 56.8521 17.9805C55.6799 15.1883 54.073 12.5804 52.1238 10.2623C50.0164 7.77293 47.4745 5.62604 44.6559 3.97965C41.8769 2.34643 38.8476 1.18737 35.6867 0.541991C34.0535 0.212713 32.4071 0.0151468 30.7345 0.00197567C29.4306 -0.0111954 28.1267 0.041489 26.8359 0.160029C23.4774 0.489306 20.1583 1.42445 17.1027 2.8601C14.4817 4.09819 12.0452 5.70506 9.88516 7.62804C7.72515 9.55102 5.84173 11.7901 4.3271 14.2531C2.65441 16.9927 1.40319 19.9825 0.718311 23.1173C0.165139 25.6198 -0.0982758 28.2013 0.0334317 30.7697C0.151969 33.259 0.53392 35.7483 1.28465 38.1323C1.7588 39.647 2.32514 41.1222 3.03636 42.5578C3.73441 43.9671 4.551 45.3237 5.45978 46.6013C7.27735 49.1434 9.49003 51.3956 12.0188 53.2527C14.6003 55.1625 17.511 56.6377 20.5666 57.6124C23.754 58.6265 27.1388 59.1007 30.4842 58.9822C33.7506 58.8768 36.9906 58.2446 40.0462 57.0724C42.9833 55.9396 45.736 54.3196 48.1462 52.2912C49.3579 51.2639 50.4379 50.1048 51.4521 48.8799C52.4794 47.6418 53.4013 46.3379 54.1652 44.9286C54.8238 43.7169 55.3769 42.4524 55.8511 41.1748C56.0882 40.5426 56.3121 39.9104 56.4965 39.2519C56.694 38.5538 56.8389 37.8294 56.9706 37.1181C57.1682 35.9986 57.2472 34.8395 57.1418 33.7068C57.0496 34.2073 56.9706 34.6947 56.8521 35.182C56.7072 35.7483 56.5228 36.3015 56.3121 36.8415C55.8906 37.9874 55.3638 39.0938 54.8633 40.2002C54.2179 41.6095 53.4672 42.9529 52.6506 44.2569C52.2291 44.9286 51.7945 45.5872 51.3204 46.2194C50.8462 46.8516 50.3062 47.4575 49.7662 48.0502C48.6862 49.2487 47.514 50.3156 46.2101 51.2639C44.8799 52.2386 43.4706 53.0947 41.9823 53.8059C39.0057 55.2547 35.7525 56.124 32.4598 56.4138C29.0881 56.7036 25.6505 56.3743 22.4105 55.4128C19.3286 54.504 16.4047 53.0288 13.8364 51.0927C11.3471 49.2092 9.18711 46.8911 7.48808 44.27C5.71003 41.5963 4.48515 38.5801 3.81344 35.4322C3.64222 34.6156 3.51051 33.7727 3.41832 32.9429C3.33929 32.2317 3.27344 31.5072 3.2471 30.7828C3.20758 29.2945 3.29978 27.7535 3.52368 26.2783C4.011 23.0382 5.06466 19.9167 6.69783 17.0717C8.14662 14.5297 10.03 12.2379 12.2427 10.3018C14.4554 8.35245 16.9842 6.78509 19.7237 5.67872C21.3042 5.03334 22.9637 4.55918 24.6496 4.24307C25.5057 4.08502 26.3618 3.95331 27.2179 3.88745C27.6393 3.84794 28.0476 3.84794 28.4691 3.80842C28.6403 3.80842 28.8115 3.82159 28.9827 3.82159C31.8408 3.76891 34.712 4.1377 37.4384 4.99382C40.3755 5.9158 43.1413 7.40413 45.5384 9.34029C48.054 11.3686 50.1482 13.8711 51.7286 16.6898C53.0721 19.0869 54.0335 21.6684 54.613 24.3553C54.7447 24.9744 54.8501 25.5934 54.9555 26.2125C55.0477 26.7788 55.3638 27.3057 55.8511 27.6218C56.8784 28.3067 58.314 27.8457 58.8145 26.7393C58.9857 26.3573 59.0384 25.949 58.9726 25.5671Z" fill="black"/>
</svg>
