<svg width="21" height="21" viewBox="0 0 21 21" fill="none" xmlns="http://www.w3.org/2000/svg">
<g clip-path="url(#clip0)">
<path d="M8.65731 17.292C11.5391 17.9282 14.5094 16.6822 16.0747 14.1804L15.1661 13.6135C13.4442 16.3737 9.81082 17.2154 7.05067 15.4935C5.23386 14.3602 4.17527 12.3302 4.28574 10.1918L5.8983 11.6681L6.62209 10.8782L4.25018 8.70606C4.03209 8.50627 3.69326 8.52096 3.49331 8.73914L1.3212 11.1111L2.11112 11.835L3.20843 10.6378C3.27699 13.8455 5.52618 16.5922 8.65731 17.292Z" fill="black" fill-opacity="0.4"/>
<path d="M13.7074 10.1068L16.0793 12.2789C16.2973 12.4788 16.6362 12.464 16.8361 12.2459L19.0083 9.87387L18.2183 9.15008L17.121 10.3473C17.0437 6.5037 13.8652 3.45053 10.0216 3.52784C7.66896 3.57514 5.49966 4.80784 4.25474 6.80449L5.16342 7.37141C6.88528 4.61126 10.5186 3.76956 13.2788 5.49142C15.0956 6.62474 16.1542 8.65474 16.0437 10.7933L14.4312 9.31681L13.7074 10.1068Z" fill="black" fill-opacity="0.4"/>
</g>
<defs>
<clipPath id="clip0">
<rect width="17" height="17" fill="white" transform="translate(20.2765 3.99979) rotate(102.5)"/>
</clipPath>
</defs>
</svg>
