<svg width="10" height="10" viewBox="0 0 10 10" fill="none" xmlns="http://www.w3.org/2000/svg">
<path d="M4.65817 0.387878C2.08576 0.387878 0 2.47364 0 5.04604C0 7.61845 2.08576 9.7046 4.65817 9.7046C7.23057 9.7046 9.31673 7.61845 9.31673 5.04604C9.31673 2.47364 7.23057 0.387878 4.65817 0.387878ZM5.62789 7.6074C5.38812 7.70205 5.19725 7.77382 5.0541 7.82351C4.91134 7.8732 4.74532 7.89805 4.55642 7.89805C4.26617 7.89805 4.04021 7.82706 3.87931 7.68549C3.71841 7.54391 3.63835 7.36448 3.63835 7.1464C3.63835 7.06161 3.64427 6.97485 3.6561 6.88652C3.66833 6.79818 3.68765 6.6988 3.71407 6.5872L4.01418 5.52716C4.0406 5.42542 4.06347 5.3288 4.08161 5.23889C4.09975 5.14818 4.10843 5.06497 4.10843 4.98926C4.10843 4.85439 4.08043 4.75974 4.02483 4.7065C3.96843 4.65326 3.86235 4.62723 3.70421 4.62723C3.62692 4.62723 3.54726 4.63867 3.46562 4.66273C3.38478 4.68757 3.31459 4.71005 3.25701 4.73213L3.33628 4.40561C3.53267 4.32555 3.72077 4.25693 3.90021 4.20014C4.07964 4.14257 4.24922 4.11417 4.40893 4.11417C4.69721 4.11417 4.91963 4.18437 5.07619 4.32318C5.23196 4.46239 5.31043 4.6434 5.31043 4.86582C5.31043 4.91196 5.30491 4.9932 5.29427 5.10914C5.28362 5.22548 5.26351 5.33156 5.23432 5.42897L4.93579 6.48585C4.91134 6.57064 4.88965 6.66765 4.86994 6.7761C4.85061 6.88454 4.84115 6.96736 4.84115 7.02296C4.84115 7.16336 4.8723 7.25919 4.9354 7.31006C4.99771 7.36093 5.10695 7.38656 5.26153 7.38656C5.33449 7.38656 5.41612 7.37355 5.5084 7.34831C5.59989 7.32307 5.66615 7.30059 5.70795 7.28127L5.62789 7.6074ZM5.57505 3.31757C5.43584 3.44692 5.26824 3.51159 5.07224 3.51159C4.87664 3.51159 4.70785 3.44692 4.56746 3.31757C4.42786 3.18822 4.35727 3.03087 4.35727 2.8471C4.35727 2.66372 4.42825 2.50598 4.56746 2.37545C4.70785 2.24452 4.87664 2.17945 5.07224 2.17945C5.26824 2.17945 5.43624 2.24452 5.57505 2.37545C5.71426 2.50598 5.78406 2.66372 5.78406 2.8471C5.78406 3.03127 5.71426 3.18822 5.57505 3.31757Z" fill="#EB5757"/>
</svg>
