<svg width="7" height="12" viewBox="0 0 7 12" fill="none" xmlns="http://www.w3.org/2000/svg">
<path d="M6.46744 0.718605C6.55116 0.634884 6.59302 0.534884 6.59302 0.418605C6.59302 0.302326 6.55116 0.204651 6.46744 0.125581C6.38837 0.0418605 6.2907 0 6.17442 0C6.05814 0 5.95814 0.0418605 5.87442 0.125581L0 6L5.87442 11.8814C5.95814 11.9605 6.05814 12 6.17442 12C6.2907 12 6.38837 11.9605 6.46744 11.8814C6.55116 11.7977 6.59302 11.6977 6.59302 11.5814C6.59302 11.4651 6.55116 11.3674 6.46744 11.2884L1.18605 6L6.46744 0.718605Z" fill="#2D9CDB"/>
</svg>
