<svg width="18" height="17" viewBox="0 0 18 17" fill="none" xmlns="http://www.w3.org/2000/svg">
<g clip-path="url(#clip0)">
<g clip-path="url(#clip1)">
<path d="M9.00005 12.6827C9.34521 12.6827 9.62501 12.4029 9.62501 12.0578C9.62501 11.7126 9.34521 11.4328 9.00005 11.4328C8.6549 11.4328 8.37509 11.7126 8.37509 12.0578C8.37509 12.4029 8.6549 12.6827 9.00005 12.6827Z" fill="#D2DCE8"/>
<path d="M10.7435 3.6401H7.25645C7.06099 3.6401 6.90195 3.79173 6.90195 3.97776V10.5693C6.90195 10.7555 7.06088 10.907 7.25645 10.907H10.7435C10.939 10.907 11.098 10.7554 11.098 10.5693V3.97776C11.0979 3.79157 10.939 3.6401 10.7435 3.6401Z" fill="#D2DCE8"/>
<path d="M9.00074 0C4.58266 0 1.00101 3.58192 1.00101 7.99984C1.00101 12.4178 4.58266 16 9.00074 16C13.4188 16 17.0009 12.418 17.0009 7.99984C17.0009 3.58171 13.4188 0 9.00074 0ZM12.1132 11.9478C12.1132 12.5589 11.6177 13.0544 11.0066 13.0544H6.99514C6.38405 13.0544 5.88853 12.5589 5.88853 11.9478V4.01723C5.88853 3.40613 6.38399 2.91061 6.99514 2.91061H11.0066C11.6176 2.91061 12.1132 3.40608 12.1132 4.01723V11.9478Z" fill="#D2DCE8"/>
</g>
<path d="M14.996 -143C-67.843 -143 -134.999 -75.839 -134.999 6.99699C-134.999 89.833 -67.843 157 14.996 157C97.835 157 164.999 89.837 164.999 6.99699C164.999 -75.843 97.835 -143 14.996 -143ZM73.354 81.021C73.354 92.479 64.064 101.77 52.605 101.77H-22.609C-34.067 101.77 -43.358 92.48 -43.358 81.021V-67.677C-43.358 -79.135 -34.068 -88.426 -22.609 -88.426H52.605C64.063 -88.426 73.354 -79.136 73.354 -67.677V81.021Z" fill="black"/>
</g>
<defs>
<clipPath id="clip0">
<rect x="1" width="16" height="16" fill="white"/>
</clipPath>
<clipPath id="clip1">
<rect x="1" width="16" height="16" fill="white"/>
</clipPath>
</defs>
</svg>
