<svg width="19" height="18" viewBox="0 0 19 18" fill="none" xmlns="http://www.w3.org/2000/svg">
<path fill-rule="evenodd" clip-rule="evenodd" d="M1.00101 8.99984C1.00101 4.58192 4.58266 1 9.00074 1C13.4188 1 17.0009 4.58171 17.0009 8.99984C17.0009 13.418 13.4188 17 9.00074 17C4.58266 17 1.00101 13.4178 1.00101 8.99984ZM14 7.84615C14 8.00545 13.8709 8.13461 13.7115 8.13461C13.2344 8.13461 12.8461 8.52281 12.8461 9C12.8461 9.47719 13.2344 9.86539 13.7115 9.86539C13.8708 9.86539 14 9.99453 14 10.1538V11.6923C14 11.8516 13.8708 11.9808 13.7115 11.9808H7.36537V10.5385C7.36537 10.3792 7.23621 10.25 7.07691 10.25C6.91762 10.25 6.78846 10.3791 6.78846 10.5385V11.9808H4.28846C4.12916 11.9808 4 11.8516 4 11.6923V10.1538C4 9.99453 4.12916 9.86539 4.28846 9.86539C4.76564 9.86539 5.15385 9.47719 5.15385 9C5.15385 8.52281 4.76562 8.13461 4.28846 8.13461C4.12916 8.13461 4 8.00547 4 7.84615V6.3077C4 6.14838 4.12916 6.01924 4.28848 6.01924H6.78848V7.46154C6.78848 7.62084 6.91764 7.75 7.07693 7.75C7.23623 7.75 7.36539 7.62086 7.36539 7.46154V6.01924H13.7115C13.8708 6.01924 14 6.14838 14 6.3077V7.84615ZM7.07693 9.67307C7.23623 9.67307 7.36539 9.54393 7.36539 9.38461V8.61537C7.36539 8.45607 7.23623 8.32691 7.07693 8.32691C6.91764 8.32691 6.78848 8.45605 6.78848 8.61537V9.38461C6.78848 9.54391 6.91764 9.67307 7.07693 9.67307Z" fill="#D2DCE8"/>
</svg>
